<svg width="17" height="17" viewBox="0 0 17 17" fill="none" xmlns="http://www.w3.org/2000/svg"><path d="M6.84197 13.6782C8.36145 13.6783 9.83748 13.1713 11.0362 12.2376L15.5588 16.7601C15.8966 17.0864 16.435 17.0771 16.7613 16.7392C17.0796 16.4097 17.0796 15.8872 16.7613 15.5577L12.2387 11.0351C14.5556 8.05265 14.0161 3.75668 11.0336 1.43979C8.05116 -0.877099 3.75522 -0.337575 1.43833 2.64489C-0.878565 5.62735 -0.339041 9.92332 2.64343 12.2402C3.84414 13.173 5.32149 13.679 6.84197 13.6782ZM3.20815 3.20699C5.21507 1.20003 8.46894 1.2 10.4759 3.20692C12.4829 5.21384 12.4829 8.46771 10.476 10.4747C8.46905 12.4816 5.21518 12.4817 3.20822 10.4747C3.20818 10.4747 3.20818 10.4747 3.20815 10.4747C1.20122 8.48237 1.1894 5.24036 3.1817 3.23344C3.1905 3.2246 3.19931 3.2158 3.20815 3.20699Z" fill="#6E6E6E"/></svg>