<svg width="194" height="44" viewBox="0 0 194 44" fill="none" xmlns="http://www.w3.org/2000/svg"><path d="M2.20008 0L0.0800781 5.28C1.32008 4.6 2.16008 4.24 3.96008 4.24H8.40008L4.16008 21.2C3.56008 23.64 3.00008 24.6 2.28008 25.6H13.6401C13.4001 24.6 13.3201 23.64 13.9201 21.2L18.1601 4.24H22.6001C24.4001 4.24 25.0801 4.6 26.0001 5.28L26.5201 0H2.20008Z" fill="#A2B900"/><path d="M34.6976 21.36L36.4176 14.48H43.3776C45.6176 14.48 46.6576 14.84 47.6176 15.16L49.0176 9.56C47.8976 9.88 46.6976 10.24 44.4576 10.24H37.4976L38.9776 4.24H46.9376C49.2176 4.24 50.2576 4.6 51.2176 4.92L51.6576 0H29.4976C29.6976 1 29.7776 1.96 29.1776 4.4L24.9776 21.2C24.3776 23.64 23.8176 24.6 23.0976 25.6H45.6576L47.7776 20.68C46.6976 21 45.4576 21.36 43.1776 21.36H34.6976Z" fill="#A2B900"/><path d="M72.9329 7.56L78.9329 2.52C80.6529 1.08 81.6129 0.640001 82.9329 0H74.0129C73.9729 0.320001 73.9329 0.640001 73.8529 0.96C73.6129 1.8 73.2129 2.44 71.7729 3.72L63.1729 11.48L64.9329 4.4C65.5329 1.96 66.0929 1 66.8529 0H55.4929C55.6929 1 55.7729 1.96 55.1729 4.4L50.9729 21.2C50.3729 23.64 49.8129 24.6 49.0929 25.6H60.4529C60.2129 24.6 60.1329 23.64 60.7329 21.2L61.6929 17.36L64.6929 14.76L67.6929 25.6H79.6929C78.6129 24.08 77.7729 21.84 77.2929 20.36L72.9329 7.56Z" fill="#A2B900"/><path d="M93.0257 21.36L97.2657 4.4C97.8657 1.96 98.4257 1 99.1857 0H87.8257C88.0257 1 88.1057 1.96 87.5057 4.4L83.3057 21.2C82.7057 23.64 82.1457 24.6 81.4257 25.6H103.506L105.626 20.52C104.346 21.2 102.306 21.36 101.186 21.36H93.0257Z" fill="#A2B900"/><path d="M117.879 21.36L119.599 14.48H126.559C128.799 14.48 129.839 14.84 130.799 15.16L132.199 9.56C131.079 9.88 129.879 10.24 127.639 10.24H120.679L122.159 4.24H130.119C132.399 4.24 133.439 4.6 134.399 4.92L134.839 0H112.679C112.879 1 112.959 1.96 112.359 4.4L108.159 21.2C107.559 23.64 106.999 24.6 106.279 25.6H128.839L130.959 20.68C129.879 21 128.639 21.36 126.359 21.36H117.879Z" fill="#A2B900"/><path d="M143.874 21.36L145.594 14.48H152.554C154.794 14.48 155.834 14.84 156.794 15.16L158.194 9.56C157.074 9.88 155.874 10.24 153.634 10.24H146.674L148.154 4.24H156.114C158.394 4.24 159.434 4.6 160.394 4.92L160.834 0H138.674C138.874 1 138.954 1.96 138.354 4.4L134.154 21.2C133.554 23.64 132.994 24.6 132.274 25.6H154.834L156.954 20.68C155.874 21 154.634 21.36 152.354 21.36H143.874Z" fill="#A2B900"/><path d="M173.949 25.6H186.589L191.829 4.6C192.549 1.72 192.789 1.2 193.949 0H187.789C188.309 1.2 188.309 1.72 187.589 4.6L183.509 20.88H183.389L178.229 0H164.509C165.029 1.2 165.029 1.72 164.309 4.6L160.229 21C159.509 23.88 159.229 24.4 158.109 25.6H164.269C163.709 24.4 163.749 23.88 164.469 21L168.589 4.4H168.669L173.949 25.6Z" fill="#A2B900"/><path d="M4.72322 39.8735L6.84727 37.92L7.36431 39.8735H4.72322ZM7.5879 40.8322L7.78353 41.5738C7.82545 41.7004 7.79751 41.8722 7.74161 42.0079C7.69969 42.1345 7.65777 42.1707 7.40623 42.3877H11.8919C11.6683 42.1707 11.5006 41.8903 11.4168 41.5919L10.1591 36.5996H6.12062L6.38613 36.9252L1.42535 41.3386C0.93626 41.7818 0.698701 41.9446 0 42.3877H2.5293C2.41751 42.1888 2.41751 42.1707 2.48738 41.9717C2.54327 41.8541 2.62712 41.7366 2.75288 41.628L3.66119 40.8322H7.5879Z" fill="#A2B900"/><path d="M16.9565 41.4291C16.3556 41.4291 16.174 41.2663 16.3137 40.8864L17.5853 37.5944C17.7949 37.0428 17.9906 36.8257 18.2561 36.5996H14.2875C14.3573 36.8257 14.3853 37.0428 14.1757 37.5944L13.0158 40.597C12.5547 41.8089 13.0577 42.3877 14.8045 42.3877H19.3321C21.2745 42.3877 22.0151 41.9174 22.5182 40.597L23.664 37.6397C23.9156 36.9885 23.9994 36.8709 24.4047 36.5996H22.2527C22.4343 36.8709 22.4343 36.9885 22.1828 37.6397L20.9391 40.8503C20.7435 41.3658 20.6456 41.4291 19.6954 41.4291H16.9565Z" fill="#A2B900"/><path d="M25.038 36.5996L24.2973 37.7934C24.7305 37.6397 25.024 37.5583 25.6528 37.5583H27.2039L25.7227 41.3929C25.5131 41.9446 25.3174 42.1616 25.0659 42.3877H29.0345C28.9507 42.1616 28.9227 41.9446 29.1323 41.3929L30.6136 37.5583H32.1647C32.7935 37.5583 33.0311 37.6397 33.3525 37.7934L33.5342 36.5996H25.038Z" fill="#A2B900"/><path d="M32.8556 40.6875C32.3665 41.9355 33.0093 42.3877 34.4626 42.3877H39.5771C41.0304 42.3877 42.0085 41.9355 42.4976 40.6875L43.4199 38.2999C43.895 37.0518 43.2662 36.5996 41.8129 36.5996H36.6984C35.2451 36.5996 34.253 37.0518 33.7778 38.2999L32.8556 40.6875ZM37.3272 37.9291C37.439 37.6487 37.6906 37.5583 38.1377 37.5583H39.619C40.0662 37.5583 40.2618 37.6487 40.15 37.9291L38.9482 41.0583C38.8364 41.3386 38.5709 41.4291 38.1238 41.4291H36.6425C36.1953 41.4291 36.0137 41.3386 36.1255 41.0583L37.3272 37.9291Z" fill="#A2B900"/><path d="M50.2996 39.8826H50.2717L49.8385 36.5996H45.1432C45.3249 36.8709 45.3249 36.9885 45.0733 37.6397L43.648 41.3477C43.3964 41.9988 43.2986 42.1164 42.9074 42.3877H45.0594C44.8637 42.1164 44.8777 41.9988 45.1292 41.3477L46.4847 37.8296H46.5126L47.1555 42.3877H49.5171L53.7512 37.8296H53.7791L52.3957 41.3929C52.1861 41.9446 51.9905 42.1616 51.7389 42.3877H55.7215C55.6237 42.1616 55.5958 41.9446 55.8054 41.3929L57.2727 37.5944C57.4823 37.0428 57.6779 36.8257 57.9574 36.5996H53.3879L50.2996 39.8826Z" fill="#A2B900"/><path d="M60.6466 39.8735L62.7707 37.92L63.2877 39.8735H60.6466ZM63.5113 40.8322L63.7069 41.5738C63.7488 41.7004 63.7209 41.8722 63.665 42.0079C63.6231 42.1345 63.5812 42.1707 63.3296 42.3877H67.8153C67.5917 42.1707 67.424 41.8903 67.3402 41.5919L66.0825 36.5996H62.044L62.3095 36.9252L57.3487 41.3386C56.8596 41.7818 56.6221 41.9446 55.9234 42.3877H58.4527C58.3409 42.1888 58.3409 42.1707 58.4108 41.9717C58.4667 41.8541 58.5505 41.7366 58.6763 41.628L59.5846 40.8322H63.5113Z" fill="#A2B900"/><path d="M69.5665 36.5996L68.8259 37.7934C69.2591 37.6397 69.5525 37.5583 70.1814 37.5583H71.7325L70.2512 41.3929C70.0416 41.9446 69.846 42.1616 69.5945 42.3877H73.5631C73.4792 42.1616 73.4513 41.9446 73.6609 41.3929L75.1422 37.5583H76.6933C77.3221 37.5583 77.5597 37.6397 77.8811 37.7934L78.0627 36.5996H69.5665Z" fill="#A2B900"/><path d="M80.8077 42.3877C80.7239 42.1616 80.696 41.9446 80.9056 41.3929L82.3728 37.5944C82.5824 37.0428 82.7781 36.8257 83.0436 36.5996H79.075C79.1448 36.8257 79.1728 37.0428 78.9632 37.5944L77.4959 41.3929C77.2863 41.9446 77.0907 42.1616 76.8391 42.3877H80.8077Z" fill="#A2B900"/><path d="M92.0243 36.5996H86.6583C85.205 36.5996 84.2128 37.0518 83.7377 38.2999L82.8154 40.6875C82.3263 41.9355 82.9691 42.3877 84.4224 42.3877H89.9282L90.6688 41.212C90.1518 41.3658 89.9002 41.4291 88.5308 41.4291H86.6024C86.1552 41.4291 85.9735 41.3386 86.0853 41.0583L87.2871 37.9291C87.3989 37.6487 87.6504 37.5583 88.0976 37.5583H90.5431C91.1998 37.5583 91.5073 37.6216 91.8566 37.712L92.0243 36.5996Z" fill="#A2B900"/><path d="M100.906 39.8735H103.337C104.12 39.8735 104.483 39.9549 104.818 40.0273L105.307 38.7611C104.916 38.8335 104.497 38.9149 103.714 38.9149H101.283L101.8 37.5583H104.581C105.377 37.5583 105.741 37.6397 106.062 37.712L106.23 36.5996H98.4881C98.5579 36.8257 98.5859 37.0428 98.3763 37.5944L96.909 41.3929C96.6994 41.9446 96.5037 42.1616 96.2522 42.3877H100.221C100.137 42.1616 100.109 41.9446 100.319 41.3929L100.906 39.8735Z" fill="#A2B900"/><path d="M109.015 42.3877C108.931 42.1616 108.903 41.9446 109.113 41.3929L110.58 37.5944C110.79 37.0428 110.985 36.8257 111.251 36.5996H107.282C107.352 36.8257 107.38 37.0428 107.171 37.5944L105.703 41.3929C105.494 41.9446 105.298 42.1616 105.046 42.3877H109.015Z" fill="#A2B900"/><path d="M114.418 41.4291L115.9 37.5944C116.109 37.0428 116.305 36.8257 116.57 36.5996H112.602C112.672 36.8257 112.7 37.0428 112.49 37.5944L111.023 41.3929C110.813 41.9446 110.618 42.1616 110.366 42.3877H118.08L118.82 41.2391C118.373 41.3929 117.66 41.4291 117.269 41.4291H114.418Z" fill="#A2B900"/><path d="M119.772 36.5996L119.031 37.7934C119.465 37.6397 119.758 37.5583 120.387 37.5583H121.938L120.457 41.3929C120.247 41.9446 120.051 42.1616 119.8 42.3877H123.769C123.685 42.1616 123.657 41.9446 123.866 41.3929L125.348 37.5583H126.899C127.528 37.5583 127.765 37.6397 128.087 37.7934L128.268 36.5996H119.772Z" fill="#A2B900"/><path d="M130.846 41.4291L131.446 39.8735H133.878C134.66 39.8735 135.024 39.9549 135.359 40.0273L135.848 38.7611C135.457 38.8335 135.038 38.9149 134.255 38.9149H131.824L132.341 37.5583H135.122C135.918 37.5583 136.281 37.6397 136.617 37.712L136.771 36.5996H129.029C129.099 36.8257 129.127 37.0428 128.917 37.5944L127.45 41.3929C127.24 41.9446 127.045 42.1616 126.793 42.3877H134.674L135.415 41.2753C135.038 41.3477 134.605 41.4291 133.808 41.4291H130.846Z" fill="#A2B900"/><path d="M141.143 37.5583H143.071C143.504 37.5583 143.616 37.6035 143.504 37.8838L143.239 38.5893C143.127 38.8696 142.987 38.9149 142.554 38.9149H140.626L141.143 37.5583ZM141.296 39.8735L141.953 42.3877H145.768C145.559 42.1707 145.503 41.8722 145.363 41.5014L144.776 39.8735C145.517 39.8373 146.187 39.7921 146.509 38.942L146.914 37.8748C147.291 36.9071 146.663 36.5996 145.097 36.5996H137.747C137.901 36.8257 137.929 37.0428 137.719 37.5944L136.252 41.3929C136.042 41.9446 135.847 42.1616 135.595 42.3877H139.564C139.48 42.1616 139.452 41.9446 139.662 41.3929L140.248 39.8735H141.296Z" fill="#A2B900"/><path d="M157.064 36.5996H150.733C149.532 36.5996 148.665 37.0699 148.316 37.9743L147.813 39.2676C147.436 40.2353 147.855 40.5247 149.21 40.5247H151.991C152.522 40.5247 152.62 40.5699 152.536 40.7779L152.382 41.1758C152.299 41.3929 152.173 41.4291 151.642 41.4291H148.344C147.673 41.4291 147.38 41.3205 147.086 41.212L146.932 42.3877H153.081C154.716 42.3877 155.415 41.8813 155.764 40.9678L156.309 39.557C156.63 38.7159 155.974 38.3903 154.52 38.3903H152.103C151.572 38.3903 151.46 38.3541 151.544 38.1371L151.67 37.8115C151.754 37.6035 151.893 37.5583 152.424 37.5583H155.596C156.253 37.5583 156.533 37.6306 156.91 37.7482L157.064 36.5996Z" fill="#A2B900"/><path d="M158.141 42.3877L156.716 43.5996H157.904L160.251 42.2521L160.782 40.8683H157.484L156.897 42.3877H158.141Z" fill="#A2B900"/><path d="M168.393 42.3877C168.309 42.1616 168.281 41.9446 168.491 41.3929L169.958 37.5944C170.168 37.0428 170.364 36.8257 170.629 36.5996H166.66C166.73 36.8257 166.758 37.0428 166.549 37.5944L165.081 41.3929C164.872 41.9446 164.676 42.1616 164.425 42.3877H168.393Z" fill="#A2B900"/><path d="M175.082 42.3877H179.498L181.329 37.6397C181.58 36.9885 181.664 36.8709 182.069 36.5996H179.917C180.099 36.8709 180.099 36.9885 179.847 37.6397L178.422 41.3205H178.38L176.577 36.5996H171.784C171.966 36.8709 171.966 36.9885 171.714 37.6397L170.289 41.3477C170.038 41.9988 169.94 42.1164 169.549 42.3877H171.701C171.505 42.1164 171.519 41.9988 171.77 41.3477L173.21 37.5944H173.238L175.082 42.3877Z" fill="#A2B900"/><path d="M190.732 36.5996H185.366C183.912 36.5996 182.92 37.0518 182.445 38.2999L181.523 40.6875C181.034 41.9355 181.677 42.3877 183.13 42.3877H188.636L189.376 41.212C188.859 41.3658 188.608 41.4291 187.238 41.4291H185.31C184.863 41.4291 184.681 41.3386 184.793 41.0583L185.995 37.9291C186.106 37.6487 186.358 37.5583 186.805 37.5583H189.25C189.907 37.5583 190.215 37.6216 190.564 37.712L190.732 36.5996Z" fill="#A2B900"/><path d="M190.115 42.3877H193.413L194 40.8683H190.702L190.115 42.3877Z" fill="#A2B900"/></svg>