<svg width="24" height="24" viewBox="0 0 24 24" fill="none" xmlns="http://www.w3.org/2000/svg"><path fill-rule="evenodd" clip-rule="evenodd" d="M23.3852 5.24923C22.5249 5.63077 21.6006 5.88923 20.6295 6.00492C21.6203 5.41108 22.3809 4.47077 22.7391 3.35077C21.8123 3.90031 20.7852 4.29846 19.6929 4.51385C18.8178 3.58215 17.5711 3 16.1914 3C13.5409 3 11.3932 5.14769 11.3932 7.79692C11.3932 8.17231 11.4363 8.53908 11.5175 8.89046C7.52985 8.69046 3.99508 6.77969 1.62831 3.87754C1.216 4.58646 0.979077 5.40985 0.979077 6.28985C0.979077 7.95446 1.82585 9.42215 3.11323 10.2837C2.32677 10.2591 1.58708 10.0425 0.940923 9.68308C0.939692 9.70338 0.939692 9.72308 0.939692 9.74338C0.939692 12.0677 2.59323 14.0068 4.78831 14.448C4.38585 14.5575 3.96185 14.616 3.52431 14.616C3.21538 14.616 2.91508 14.5852 2.62154 14.5298C3.23077 16.4357 5.00308 17.8222 7.10154 17.8615C5.46031 19.1477 3.39077 19.9151 1.14462 19.9151C0.756923 19.9151 0.375385 19.8923 0 19.8474C2.12308 21.2092 4.64431 22.0037 7.35385 22.0037C16.1785 22.0037 21.0043 14.6929 21.0043 8.35446C21.0043 8.14523 20.9994 7.93969 20.9902 7.73292C21.9268 7.056 22.7403 6.21292 23.384 5.25046L23.3852 5.24923Z" fill="#A2B900"/></svg>