<svg width="24" height="24" viewBox="0 0 24 24" fill="none" xmlns="http://www.w3.org/2000/svg"><path fill-rule="evenodd" clip-rule="evenodd" d="M2.7 1H21.4C22.3 1 23 1.7 23 2.6V21.4C23 22.3 22.3 23 21.4 23H2.7C1.7 23 1 22.4 1 21.5V2.6C1 1.7 1.7 1 2.7 1ZM4.2998 9.2998V19.7998H7.5998V9.2998H4.2998ZM5.8999 7.8C4.7999 7.8 3.8999 7 3.8999 5.9C3.8999 4.9 4.6999 4 5.7999 4C6.7999 4 7.6999 4.8 7.6999 5.9C7.6999 7 6.9999 7.8 5.8999 7.8ZM16.4001 19.7996H19.7001V14.0996C19.7001 11.2996 19.1001 9.09961 15.8001 9.09961C14.2001 9.09961 13.2001 9.99961 12.7001 10.7996V9.29961H9.6001V19.7996H12.9001V14.5996C12.9001 13.0996 13.2001 11.7996 14.8001 11.7996C16.4001 11.7996 16.4001 13.3996 16.4001 14.5996V19.7996Z" fill="#A2B900"/></svg>