<svg width="194" height="7" viewBox="0 0 194 7" fill="none" xmlns="http://www.w3.org/2000/svg">
<path d="M4.72322 3.2739L6.84727 1.32041L7.36431 3.2739H4.72322ZM7.5879 4.23256L7.78353 4.97416C7.82545 5.10078 7.79751 5.27261 7.74161 5.40827C7.69969 5.53488 7.65777 5.57106 7.40623 5.78811H11.8919C11.6683 5.57106 11.5006 5.2907 11.4168 4.99225L10.1591 0H6.12062L6.38613 0.325581L1.42535 4.73902C0.93626 5.18217 0.698701 5.34496 0 5.78811H2.5293C2.41751 5.58915 2.41751 5.57106 2.48738 5.37209C2.54327 5.25452 2.62712 5.13695 2.75288 5.02842L3.66119 4.23256H7.5879Z" fill="#A2B900"/>
<path d="M16.9565 4.82946C16.3556 4.82946 16.174 4.66667 16.3137 4.28682L17.5853 0.994832C17.7949 0.443153 17.9906 0.226099 18.2561 0H14.2875C14.3573 0.226099 14.3853 0.443153 14.1757 0.994832L13.0158 3.99742C12.5547 5.2093 13.0577 5.78811 14.8045 5.78811H19.3321C21.2745 5.78811 22.0151 5.31783 22.5182 3.99742L23.664 1.04005C23.9156 0.388889 23.9994 0.271318 24.4047 0H22.2527C22.4343 0.271318 22.4343 0.388889 22.1828 1.04005L20.9391 4.25065C20.7435 4.76615 20.6456 4.82946 19.6954 4.82946H16.9565Z" fill="#A2B900"/>
<path d="M25.038 0L24.2973 1.1938C24.7305 1.04005 25.024 0.958656 25.6528 0.958656H27.2039L25.7227 4.79328C25.5131 5.34496 25.3174 5.56202 25.0659 5.78811H29.0345C28.9507 5.56202 28.9227 5.34496 29.1323 4.79328L30.6136 0.958656H32.1647C32.7935 0.958656 33.0311 1.04005 33.3525 1.1938L33.5342 0H25.038Z" fill="#A2B900"/>
<path d="M32.8556 4.08786C32.3665 5.33592 33.0093 5.78811 34.4626 5.78811H39.5771C41.0304 5.78811 42.0085 5.33592 42.4976 4.08786L43.4199 1.70026C43.895 0.452196 43.2662 0 41.8129 0H36.6984C35.2451 0 34.253 0.452196 33.7778 1.70026L32.8556 4.08786ZM37.3272 1.32946C37.439 1.0491 37.6906 0.958656 38.1377 0.958656H39.619C40.0662 0.958656 40.2618 1.0491 40.15 1.32946L38.9482 4.45866C38.8364 4.73902 38.5709 4.82946 38.1238 4.82946H36.6425C36.1953 4.82946 36.0137 4.73902 36.1255 4.45866L37.3272 1.32946Z" fill="#A2B900"/>
<path d="M50.2996 3.28295H50.2717L49.8385 0H45.1432C45.3249 0.271318 45.3249 0.388889 45.0733 1.04005L43.648 4.74806C43.3964 5.39922 43.2986 5.5168 42.9074 5.78811H45.0594C44.8637 5.5168 44.8777 5.39922 45.1292 4.74806L46.4847 1.22997H46.5126L47.1555 5.78811H49.5171L53.7512 1.22997H53.7791L52.3957 4.79328C52.1861 5.34496 51.9905 5.56202 51.7389 5.78811H55.7215C55.6237 5.56202 55.5958 5.34496 55.8054 4.79328L57.2727 0.994832C57.4823 0.443153 57.6779 0.226099 57.9574 0H53.3879L50.2996 3.28295Z" fill="#A2B900"/>
<path d="M60.6466 3.2739L62.7707 1.32041L63.2877 3.2739H60.6466ZM63.5113 4.23256L63.7069 4.97416C63.7488 5.10078 63.7209 5.27261 63.665 5.40827C63.6231 5.53488 63.5812 5.57106 63.3296 5.78811H67.8153C67.5917 5.57106 67.424 5.2907 67.3402 4.99225L66.0825 0H62.044L62.3095 0.325581L57.3487 4.73902C56.8596 5.18217 56.6221 5.34496 55.9234 5.78811H58.4527C58.3409 5.58915 58.3409 5.57106 58.4108 5.37209C58.4667 5.25452 58.5505 5.13695 58.6763 5.02842L59.5846 4.23256H63.5113Z" fill="#A2B900"/>
<path d="M69.5665 0L68.8259 1.1938C69.2591 1.04005 69.5525 0.958656 70.1814 0.958656H71.7325L70.2512 4.79328C70.0416 5.34496 69.846 5.56202 69.5945 5.78811H73.5631C73.4792 5.56202 73.4513 5.34496 73.6609 4.79328L75.1422 0.958656H76.6933C77.3221 0.958656 77.5597 1.04005 77.8811 1.1938L78.0627 0H69.5665Z" fill="#A2B900"/>
<path d="M80.8077 5.78811C80.7239 5.56202 80.696 5.34496 80.9056 4.79328L82.3728 0.994832C82.5824 0.443153 82.7781 0.226099 83.0436 0H79.075C79.1448 0.226099 79.1728 0.443153 78.9632 0.994832L77.4959 4.79328C77.2863 5.34496 77.0907 5.56202 76.8391 5.78811H80.8077Z" fill="#A2B900"/>
<path d="M92.0243 0H86.6583C85.205 0 84.2128 0.452196 83.7377 1.70026L82.8154 4.08786C82.3263 5.33592 82.9691 5.78811 84.4224 5.78811H89.9282L90.6688 4.6124C90.1518 4.76615 89.9002 4.82946 88.5308 4.82946H86.6024C86.1552 4.82946 85.9735 4.73902 86.0853 4.45866L87.2871 1.32946C87.3989 1.0491 87.6504 0.958656 88.0976 0.958656H90.5431C91.1998 0.958656 91.5073 1.02196 91.8566 1.1124L92.0243 0Z" fill="#A2B900"/>
<path d="M100.906 3.2739H103.337C104.12 3.2739 104.483 3.3553 104.818 3.42765L105.307 2.1615C104.916 2.23385 104.497 2.31525 103.714 2.31525H101.283L101.8 0.958656H104.581C105.377 0.958656 105.741 1.04005 106.062 1.1124L106.23 0H98.4881C98.5579 0.226099 98.5859 0.443153 98.3763 0.994832L96.909 4.79328C96.6994 5.34496 96.5037 5.56202 96.2522 5.78811H100.221C100.137 5.56202 100.109 5.34496 100.319 4.79328L100.906 3.2739Z" fill="#A2B900"/>
<path d="M109.015 5.78811C108.931 5.56202 108.903 5.34496 109.113 4.79328L110.58 0.994832C110.79 0.443153 110.985 0.226099 111.251 0H107.282C107.352 0.226099 107.38 0.443153 107.171 0.994832L105.703 4.79328C105.494 5.34496 105.298 5.56202 105.046 5.78811H109.015Z" fill="#A2B900"/>
<path d="M114.418 4.82946L115.9 0.994832C116.109 0.443153 116.305 0.226099 116.57 0H112.602C112.672 0.226099 112.7 0.443153 112.49 0.994832L111.023 4.79328C110.813 5.34496 110.618 5.56202 110.366 5.78811H118.08L118.82 4.63953C118.373 4.79328 117.66 4.82946 117.269 4.82946H114.418Z" fill="#A2B900"/>
<path d="M119.772 0L119.031 1.1938C119.465 1.04005 119.758 0.958656 120.387 0.958656H121.938L120.457 4.79328C120.247 5.34496 120.051 5.56202 119.8 5.78811H123.769C123.685 5.56202 123.657 5.34496 123.866 4.79328L125.348 0.958656H126.899C127.528 0.958656 127.765 1.04005 128.087 1.1938L128.268 0H119.772Z" fill="#A2B900"/>
<path d="M130.846 4.82946L131.446 3.2739H133.878C134.66 3.2739 135.024 3.3553 135.359 3.42765L135.848 2.1615C135.457 2.23385 135.038 2.31525 134.255 2.31525H131.824L132.341 0.958656H135.122C135.918 0.958656 136.281 1.04005 136.617 1.1124L136.771 0H129.029C129.099 0.226099 129.127 0.443153 128.917 0.994832L127.45 4.79328C127.24 5.34496 127.045 5.56202 126.793 5.78811H134.674L135.415 4.67571C135.038 4.74806 134.605 4.82946 133.808 4.82946H130.846Z" fill="#A2B900"/>
<path d="M141.143 0.958656H143.071C143.504 0.958656 143.616 1.00388 143.504 1.28424L143.239 1.98966C143.127 2.27003 142.987 2.31525 142.554 2.31525H140.626L141.143 0.958656ZM141.296 3.2739L141.953 5.78811H145.768C145.559 5.57106 145.503 5.27261 145.363 4.90181L144.776 3.2739C145.517 3.23773 146.187 3.19251 146.509 2.34238L146.914 1.27519C147.291 0.307494 146.663 0 145.097 0H137.747C137.901 0.226099 137.929 0.443153 137.719 0.994832L136.252 4.79328C136.042 5.34496 135.847 5.56202 135.595 5.78811H139.564C139.48 5.56202 139.452 5.34496 139.662 4.79328L140.248 3.2739H141.296Z" fill="#A2B900"/>
<path d="M157.064 0H150.733C149.532 0 148.665 0.470285 148.316 1.37468L147.813 2.66796C147.436 3.63566 147.855 3.92506 149.21 3.92506H151.991C152.522 3.92506 152.62 3.97028 152.536 4.17829L152.382 4.57623C152.299 4.79328 152.173 4.82946 151.642 4.82946H148.344C147.673 4.82946 147.38 4.72093 147.086 4.6124L146.932 5.78811H153.081C154.716 5.78811 155.415 5.28165 155.764 4.36822L156.309 2.95736C156.63 2.11628 155.974 1.7907 154.52 1.7907H152.103C151.572 1.7907 151.46 1.75452 151.544 1.53747L151.67 1.21189C151.754 1.00388 151.893 0.958656 152.424 0.958656H155.596C156.253 0.958656 156.533 1.03101 156.91 1.14858L157.064 0Z" fill="#A2B900"/>
<path d="M158.141 5.78811L156.716 7H157.904L160.251 5.65245L160.782 4.26873H157.484L156.897 5.78811H158.141Z" fill="#A2B900"/>
<path d="M168.393 5.78811C168.309 5.56202 168.281 5.34496 168.491 4.79328L169.958 0.994832C170.168 0.443153 170.364 0.226099 170.629 0H166.66C166.73 0.226099 166.758 0.443153 166.549 0.994832L165.081 4.79328C164.872 5.34496 164.676 5.56202 164.425 5.78811H168.393Z" fill="#A2B900"/>
<path d="M175.082 5.78811H179.498L181.329 1.04005C181.58 0.388889 181.664 0.271318 182.069 0H179.917C180.099 0.271318 180.099 0.388889 179.847 1.04005L178.422 4.72093H178.38L176.577 0H171.784C171.966 0.271318 171.966 0.388889 171.714 1.04005L170.289 4.74806C170.038 5.39922 169.94 5.5168 169.549 5.78811H171.701C171.505 5.5168 171.519 5.39922 171.77 4.74806L173.21 0.994832H173.238L175.082 5.78811Z" fill="#A2B900"/>
<path d="M190.732 0H185.366C183.912 0 182.92 0.452196 182.445 1.70026L181.523 4.08786C181.034 5.33592 181.677 5.78811 183.13 5.78811H188.636L189.376 4.6124C188.859 4.76615 188.608 4.82946 187.238 4.82946H185.31C184.863 4.82946 184.681 4.73902 184.793 4.45866L185.995 1.32946C186.106 1.0491 186.358 0.958656 186.805 0.958656H189.25C189.907 0.958656 190.215 1.02196 190.564 1.1124L190.732 0Z" fill="#A2B900"/>
<path d="M190.115 5.78811H193.413L194 4.26873H190.702L190.115 5.78811Z" fill="#A2B900"/>
</svg>
