<svg width="357" height="36" viewBox="0 0 357 36" fill="none" xmlns="http://www.w3.org/2000/svg">
<path fill-rule="evenodd" clip-rule="evenodd" d="M0.5 16C0.5 10.3995 0.5 7.59921 1.58993 5.46009C2.54867 3.57847 4.07847 2.04867 5.96009 1.08993C8.09921 0 10.8995 0 16.5 0H340.5C346.101 0 348.901 0 351.04 1.08993C352.922 2.04867 354.451 3.57847 355.41 5.46009C356.5 7.59921 356.5 10.3995 356.5 16V20C356.5 25.6005 356.5 28.4008 355.41 30.5399C354.451 32.4215 352.922 33.9513 351.04 34.9101C348.901 36 346.101 36 340.5 36H16.5C10.8995 36 8.09921 36 5.96009 34.9101C4.07847 33.9513 2.54867 32.4215 1.58993 30.5399C0.5 28.4008 0.5 25.6005 0.5 20V16Z" fill="#E6E6E8"/>
</svg>
