<svg width="22" height="22" viewBox="0 0 22 22" fill="none" xmlns="http://www.w3.org/2000/svg">
<path fill-rule="evenodd" clip-rule="evenodd" d="M1.69976 0H20.3998C21.2998 0 21.9998 0.7 21.9998 1.6V20.4C21.9998 21.3 21.2998 22 20.3998 22H1.69976C0.699756 22 -0.000244141 21.4 -0.000244141 20.5V1.6C-0.000244141 0.7 0.699756 0 1.69976 0ZM3.29956 8.2998V18.7998H6.59956V8.2998H3.29956ZM4.89966 6.8C3.79966 6.8 2.89966 6 2.89966 4.9C2.89966 3.9 3.69966 3 4.79966 3C5.79966 3 6.69966 3.8 6.69966 4.9C6.69966 6 5.99966 6.8 4.89966 6.8ZM15.3999 18.7996H18.6999V13.0996C18.6999 10.2996 18.0999 8.09961 14.7999 8.09961C13.1999 8.09961 12.1999 8.99961 11.6999 9.79961V8.29961H8.59985V18.7996H11.8999V13.5996C11.8999 12.0996 12.1999 10.7996 13.7999 10.7996C15.3999 10.7996 15.3999 12.3996 15.3999 13.5996V18.7996Z" fill="#A2B900"/>
</svg>
