<svg width="24" height="20" viewBox="0 0 24 20" fill="none" xmlns="http://www.w3.org/2000/svg">
<path fill-rule="evenodd" clip-rule="evenodd" d="M23.3852 2.24923C22.5249 2.63077 21.6006 2.88923 20.6295 3.00492C21.6203 2.41108 22.3809 1.47077 22.7391 0.350769C21.8123 0.900308 20.7852 1.29846 19.6929 1.51385C18.8178 0.582154 17.5711 0 16.1914 0C13.5409 0 11.3932 2.14769 11.3932 4.79692C11.3932 5.17231 11.4363 5.53908 11.5175 5.89046C7.52985 5.69046 3.99508 3.77969 1.62831 0.877538C1.216 1.58646 0.979077 2.40985 0.979077 3.28985C0.979077 4.95446 1.82585 6.42215 3.11323 7.28369C2.32677 7.25908 1.58708 7.04246 0.940923 6.68308C0.939692 6.70338 0.939692 6.72308 0.939692 6.74338C0.939692 9.06769 2.59323 11.0068 4.78831 11.448C4.38585 11.5575 3.96185 11.616 3.52431 11.616C3.21538 11.616 2.91508 11.5852 2.62154 11.5298C3.23077 13.4357 5.00308 14.8222 7.10154 14.8615C5.46031 16.1477 3.39077 16.9151 1.14462 16.9151C0.756923 16.9151 0.375385 16.8923 0 16.8474C2.12308 18.2092 4.64431 19.0037 7.35385 19.0037C16.1785 19.0037 21.0043 11.6929 21.0043 5.35446C21.0043 5.14523 20.9994 4.93969 20.9902 4.73292C21.9268 4.056 22.7403 3.21292 23.384 2.25046L23.3852 2.24923Z" fill="#A2B900"/>
</svg>
