<svg width="22" height="22" viewBox="0 0 22 22" fill="none" xmlns="http://www.w3.org/2000/svg">
<path fill-rule="evenodd" clip-rule="evenodd" d="M20.7998 0H1.19976C0.499756 0 -0.000244141 0.5 -0.000244141 1.2V20.8C-0.000244141 21.4 0.499756 22 1.19976 22H11.6998V13.4H8.89976V10.1H11.6998V7.7C11.6998 4.9 13.3998 3.3 15.9998 3.3C17.1998 3.3 18.1998 3.4 18.5998 3.4V6.3H16.8998C15.5998 6.3 15.2998 6.9 15.2998 7.9V10H18.5998L18.0998 13.4H15.2998V22H20.7998C21.3998 22 21.9998 21.5 21.9998 20.8V1.2C21.9998 0.5 21.4998 0 20.7998 0V0Z" fill="#A2B900"/>
</svg>
