<svg width="22" height="22" viewBox="0 0 22 22" fill="none" xmlns="http://www.w3.org/2000/svg">
<path fill-rule="evenodd" clip-rule="evenodd" d="M1.7 0H20.4C21.3 0 22 0.7 22 1.6V20.4C22 21.3 21.3 22 20.4 22H1.7C0.7 22 0 21.4 0 20.5V1.6C0 0.7 0.7 0 1.7 0ZM3.2998 8.2998V18.7998H6.5998V8.2998H3.2998ZM4.8999 6.8C3.7999 6.8 2.8999 6 2.8999 4.9C2.8999 3.9 3.6999 3 4.7999 3C5.7999 3 6.6999 3.8 6.6999 4.9C6.6999 6 5.9999 6.8 4.8999 6.8ZM15.4001 18.7996H18.7001V13.0996C18.7001 10.2996 18.1001 8.09961 14.8001 8.09961C13.2001 8.09961 12.2001 8.99961 11.7001 9.79961V8.29961H8.6001V18.7996H11.9001V13.5996C11.9001 12.0996 12.2001 10.7996 13.8001 10.7996C15.4001 10.7996 15.4001 12.3996 15.4001 13.5996V18.7996Z" fill="#A2B900"/>
</svg>
