<svg width="24" height="20" viewBox="0 0 24 20" fill="none" xmlns="http://www.w3.org/2000/svg">
<path fill-rule="evenodd" clip-rule="evenodd" d="M23.385 2.24923C22.5247 2.63077 21.6004 2.88923 20.6294 3.00492C21.6201 2.41108 22.3807 1.47077 22.7389 0.350769C21.8121 0.900308 20.785 1.29846 19.6927 1.51385C18.8177 0.582154 17.5709 0 16.1912 0C13.5407 0 11.393 2.14769 11.393 4.79692C11.393 5.17231 11.4361 5.53908 11.5174 5.89046C7.52966 5.69046 3.99489 3.77969 1.62812 0.877538C1.21582 1.58646 0.978894 2.40985 0.978894 3.28985C0.978894 4.95446 1.82566 6.42215 3.11305 7.28369C2.32659 7.25908 1.58689 7.04246 0.94074 6.68308C0.939509 6.70338 0.939509 6.72308 0.939509 6.74338C0.939509 9.06769 2.59305 11.0068 4.78812 11.448C4.38566 11.5575 3.96166 11.616 3.52412 11.616C3.2152 11.616 2.91489 11.5852 2.62136 11.5298C3.23059 13.4357 5.00289 14.8222 7.10136 14.8615C5.46012 16.1477 3.39059 16.9151 1.14443 16.9151C0.75674 16.9151 0.375202 16.8923 -0.000183105 16.8474C2.12289 18.2092 4.64412 19.0037 7.35366 19.0037C16.1783 19.0037 21.0041 11.6929 21.0041 5.35446C21.0041 5.14523 20.9992 4.93969 20.99 4.73292C21.9266 4.056 22.7401 3.21292 23.3838 2.25046L23.385 2.24923Z" fill="#A2B900"/>
</svg>
