<svg width="22" height="22" viewBox="0 0 22 22" fill="none" xmlns="http://www.w3.org/2000/svg">
<path fill-rule="evenodd" clip-rule="evenodd" d="M1.69988 0H20.3999C21.2999 0 21.9999 0.7 21.9999 1.6V20.4C21.9999 21.3 21.2999 22 20.3999 22H1.69988C0.699878 22 -0.00012207 21.4 -0.00012207 20.5V1.6C-0.00012207 0.7 0.699878 0 1.69988 0ZM3.29968 8.2998V18.7998H6.59968V8.2998H3.29968ZM4.89978 6.8C3.79978 6.8 2.89978 6 2.89978 4.9C2.89978 3.9 3.69978 3 4.79978 3C5.79978 3 6.69978 3.8 6.69978 4.9C6.69978 6 5.99978 6.8 4.89978 6.8ZM15.4 18.7996H18.7V13.0996C18.7 10.2996 18.1 8.09961 14.8 8.09961C13.2 8.09961 12.2 8.99961 11.7 9.79961V8.29961H8.59998V18.7996H11.9V13.5996C11.9 12.0996 12.2 10.7996 13.8 10.7996C15.4 10.7996 15.4 12.3996 15.4 13.5996V18.7996Z" fill="#A2B900"/>
</svg>
