<svg width="24" height="20" viewBox="0 0 24 20" fill="none" xmlns="http://www.w3.org/2000/svg">
<path fill-rule="evenodd" clip-rule="evenodd" d="M23.385 2.24923C22.5247 2.63077 21.6004 2.88923 20.6293 3.00492C21.6201 2.41108 22.3807 1.47077 22.7388 0.350769C21.8121 0.900308 20.785 1.29846 19.6927 1.51385C18.8176 0.582154 17.5708 0 16.1911 0C13.5407 0 11.393 2.14769 11.393 4.79692C11.393 5.17231 11.4361 5.53908 11.5173 5.89046C7.5296 5.69046 3.99483 3.77969 1.62806 0.877538C1.21576 1.58646 0.978833 2.40985 0.978833 3.28985C0.978833 4.95446 1.8256 6.42215 3.11299 7.28369C2.32652 7.25908 1.58683 7.04246 0.940679 6.68308C0.939448 6.70338 0.939448 6.72308 0.939448 6.74338C0.939448 9.06769 2.59299 11.0068 4.78806 11.448C4.3856 11.5575 3.9616 11.616 3.52406 11.616C3.21514 11.616 2.91483 11.5852 2.62129 11.5298C3.23053 13.4357 5.00283 14.8222 7.10129 14.8615C5.46006 16.1477 3.39053 16.9151 1.14437 16.9151C0.756679 16.9151 0.37514 16.8923 -0.000244141 16.8474C2.12283 18.2092 4.64406 19.0037 7.3536 19.0037C16.1782 19.0037 21.0041 11.6929 21.0041 5.35446C21.0041 5.14523 20.9991 4.93969 20.9899 4.73292C21.9265 4.056 22.7401 3.21292 23.3838 2.25046L23.385 2.24923Z" fill="#A2B900"/>
</svg>
