<svg width="194" height="26" viewBox="0 0 194 26" fill="none" xmlns="http://www.w3.org/2000/svg">
<path d="M2.20008 0L0.0800781 5.28C1.32008 4.6 2.16008 4.24 3.96008 4.24H8.40008L4.16008 21.2C3.56008 23.64 3.00008 24.6 2.28008 25.6H13.6401C13.4001 24.6 13.3201 23.64 13.9201 21.2L18.1601 4.24H22.6001C24.4001 4.24 25.0801 4.6 26.0001 5.28L26.5201 0H2.20008Z" fill="#A2B900"/>
<path d="M34.6976 21.36L36.4176 14.48H43.3776C45.6176 14.48 46.6576 14.84 47.6176 15.16L49.0176 9.56C47.8976 9.88 46.6976 10.24 44.4576 10.24H37.4976L38.9776 4.24H46.9376C49.2176 4.24 50.2576 4.6 51.2176 4.92L51.6576 0H29.4976C29.6976 1 29.7776 1.96 29.1776 4.4L24.9776 21.2C24.3776 23.64 23.8176 24.6 23.0976 25.6H45.6576L47.7776 20.68C46.6976 21 45.4576 21.36 43.1776 21.36H34.6976Z" fill="#A2B900"/>
<path d="M72.9329 7.56L78.9329 2.52C80.6529 1.08 81.6129 0.640001 82.9329 0H74.0129C73.9729 0.320001 73.9329 0.640001 73.8529 0.96C73.6129 1.8 73.2129 2.44 71.7729 3.72L63.1729 11.48L64.9329 4.4C65.5329 1.96 66.0929 1 66.8529 0H55.4929C55.6929 1 55.7729 1.96 55.1729 4.4L50.9729 21.2C50.3729 23.64 49.8129 24.6 49.0929 25.6H60.4529C60.2129 24.6 60.1329 23.64 60.7329 21.2L61.6929 17.36L64.6929 14.76L67.6929 25.6H79.6929C78.6129 24.08 77.7729 21.84 77.2929 20.36L72.9329 7.56Z" fill="#A2B900"/>
<path d="M93.0257 21.36L97.2657 4.4C97.8657 1.96 98.4257 1 99.1857 0H87.8257C88.0257 1 88.1057 1.96 87.5057 4.4L83.3057 21.2C82.7057 23.64 82.1457 24.6 81.4257 25.6H103.506L105.626 20.52C104.346 21.2 102.306 21.36 101.186 21.36H93.0257Z" fill="#A2B900"/>
<path d="M117.879 21.36L119.599 14.48H126.559C128.799 14.48 129.839 14.84 130.799 15.16L132.199 9.56C131.079 9.88 129.879 10.24 127.639 10.24H120.679L122.159 4.24H130.119C132.399 4.24 133.439 4.6 134.399 4.92L134.839 0H112.679C112.879 1 112.959 1.96 112.359 4.4L108.159 21.2C107.559 23.64 106.999 24.6 106.279 25.6H128.839L130.959 20.68C129.879 21 128.639 21.36 126.359 21.36H117.879Z" fill="#A2B900"/>
<path d="M143.874 21.36L145.594 14.48H152.554C154.794 14.48 155.834 14.84 156.794 15.16L158.194 9.56C157.074 9.88 155.874 10.24 153.634 10.24H146.674L148.154 4.24H156.114C158.394 4.24 159.434 4.6 160.394 4.92L160.834 0H138.674C138.874 1 138.954 1.96 138.354 4.4L134.154 21.2C133.554 23.64 132.994 24.6 132.274 25.6H154.834L156.954 20.68C155.874 21 154.634 21.36 152.354 21.36H143.874Z" fill="#A2B900"/>
<path d="M173.949 25.6H186.589L191.829 4.6C192.549 1.72 192.789 1.2 193.949 0H187.789C188.309 1.2 188.309 1.72 187.589 4.6L183.509 20.88H183.389L178.229 0H164.509C165.029 1.2 165.029 1.72 164.309 4.6L160.229 21C159.509 23.88 159.229 24.4 158.109 25.6H164.269C163.709 24.4 163.749 23.88 164.469 21L168.589 4.4H168.669L173.949 25.6Z" fill="#A2B900"/>
</svg>
